<?xml version="1.0"?>
<svg height="16px" viewBox="0 0 16 16" width="16px" xmlns="http://www.w3.org/2000/svg">
    <path d="m 11.5 1 c -0.398438 0 -0.777344 0.15625 -1.0625 0.4375 l -8 8 c -0.148438 0.148438 -0.257812 0.328125 -0.324219 0.527344 l -1.058593 3.222656 c -0.203125 0.601562 0.367187 1.171875 0.96875 0.96875 l 3.21875 -1.058594 c 0.199219 -0.066406 0.382812 -0.175781 0.53125 -0.324218 l 8 -8 c 0.582031 -0.585938 0.582031 -1.535157 0 -2.121094 l -1.171875 -1.171875 c -0.28125 -0.28125 -0.664062 -0.4375 -1.058594 -0.4375 z m 0 2.121094 l 1.378906 1.378906 l -1.0625 1.0625 l -1.378906 -1.378906 z m -2.480469 2.480468 l 1.378907 1.378907 l -5.4375 5.4375 l -1.84375 0.609375 l 0.609375 -1.84375 z m 0 0" fill="#ffffff"></path>
</svg>