<?xml version="1.0"?>
<svg height="16px" viewBox="0 0 16 16" width="16px" xmlns="http://www.w3.org/2000/svg">
    <path d="m 8 1 c -2.492188 0 -4.535156 1.90625 -4.769531 4.335938 c -1.324219 0.375 -2.230469 1.601562 -2.230469 2.996093 c 0 1.746094 1.421875 3.167969 3.167969 3.167969 h 6.464843 c 1.746094 0 3.167969 -1.421875 3.167969 -3.167969 c 0 -1.5 -1.046875 -2.789062 -2.492188 -3.101562 c -0.464843 -1.867188 -2.152343 -3.230469 -4.148437 -3.230469 z m 0 2 c 1.207031 0 2.207031 0.867188 2.421875 2.023438 l 0.152344 0.808593 l 0.816406 0.101563 c 0.585937 0.070313 1.109375 0.632813 1.109375 1.398437 c 0 0.664063 -0.503906 1.167969 -1.167969 1.167969 h -6.464844 c -0.664062 0 -1.167968 -0.503906 -1.167968 -1.167969 c 0 -0.582031 0.398437 -1.058593 0.933593 -1.207031 l 0.847657 -0.234375 l -0.03125 -0.878906 c -0.003907 -0.046875 -0.003907 -0.09375 -0.003907 -0.140625 c 0 -1.503906 1.207031 -2.71875 2.710938 -2.71875 z m 0 0" fill="#ffffff"></path>
    <path d="m 4 12 l -1 3 h 2 l 1 -3 z m 0 0" fill="#ffffff"></path>
    <path d="m 7.5 12 l -1 3 h 2 l 1 -3 z m 0 0" fill="#ffffff"></path>
    <path d="m 11 12 l -1 3 h 2 l 1 -3 z m 0 0" fill="#ffffff"></path>
</svg>