<?xml version="1.0"?>
<svg height="16px" viewBox="0 0 16 16" width="16px" xmlns="http://www.w3.org/2000/svg">
    <path d="m 5 1 c -1.101562 0 -2 0.898438 -2 2 v 8 c 0 1.101562 0.898438 2 2 2 h 6 c 1.101562 0 2 -0.898438 2 -2 v -5 c 0 -0.265625 -0.105469 -0.519531 -0.292969 -0.707031 l -4 -4 c -0.1875 -0.1875 -0.441406 -0.292969 -0.707031 -0.292969 z m 0 2 h 3 v 3 c 0 0.554688 0.445312 1 1 1 h 2 v 4 h -6 z m 0 0" fill="#2e3436"></path>
    <path d="m 3 5 c -1.101562 0 -2 0.898438 -2 2 v 6 c 0 1.101562 0.898438 2 2 2 h 6 c 1.101562 0 2 -0.898438 2 -2 v -1 h -2 v 1 h -6 v -6 h 1 v -2 z m 0 0" fill="#2e3436"></path>
</svg>