<?xml version="1.0"?>
<svg height="16px" viewBox="0 0 16 16" width="16px" xmlns="http://www.w3.org/2000/svg">
    <path d="m 6 1 c -0.554688 0 -1 0.445312 -1 1 h -2 c -0.554688 0 -1 0.445312 -1 1 s 0.445312 1 1 1 h 10 c 0.554688 0 1 -0.445312 1 -1 s -0.445312 -1 -1 -1 h -2 c 0 -0.554688 -0.445312 -1 -1 -1 z m 0 0" fill="#2e3436"></path>
    <path d="m 3 5 l 0.8125 8.15625 c 0.101562 1.039062 0.941406 1.84375 1.984375 1.84375 h 4.40625 c 1.042969 0 1.882813 -0.804688 1.984375 -1.84375 l 0.8125 -8.15625 z m 2.207031 2 h 5.585938 l -0.605469 6.058594 c 0 0.011718 -0.011719 0.019531 -0.011719 0.019531 c 0 0 0 -0.019531 -0.175781 -0.078125 h -4.40625 c 0.019531 0.007812 0 0.023438 0 0.023438 s -0.007812 -0.019532 -0.011719 -0.023438 z m 0 0" fill="#2e3436"></path>
</svg>