<?xml version="1.0"?>
<svg height="16px" viewBox="0 0 16 16" width="16px" xmlns="http://www.w3.org/2000/svg">
    <path d="m 4 1 c -1.101562 0 -2 0.898438 -2 2 v 6 c 0 1.101562 0.898438 2 2 2 h 1 v -2 h -1 v -6 h 6 v 1 h 2 v -1 c 0 -1.101562 -0.898438 -2 -2 -2 z m 0 0" fill="#2e3436"></path>
    <path d="m 6 5 c -1.101562 0 -2 0.898438 -2 2 v 6 c 0 1.101562 0.898438 2 2 2 h 6 c 1.101562 0 2 -0.898438 2 -2 v -6 c 0 -1.101562 -0.898438 -2 -2 -2 z m 0 2 h 6 v 6 h -6 z m 0 0" fill="#2e3436"></path>
</svg>